w1b1r0.ufo
<glyph name="_3" format="2">
  <advance width="1"/>
  <unicode hex="0103"/>
  
  <outline>
    <component base="cap" xOffset="0" yOffset="0.000" />
    <component base="cap" xOffset="0" yOffset="30.000" />
    <contour>
      <point x="0.000" y="0.000" type="line"/>
      <point x="0.000" y="30.000" type="line"/>
      <point x="1.000" y="30.000" type="line"/>
      <point x="1.000" y="0.000" type="line"/>
    </contour>
  </outline>
</glyph>
<glyph name="_10" format="2">
  <advance width="1"/>
  <unicode hex="010A"/>
  <unicode hex="0031"/><unicode hex="0066"/>
  <outline>
    <component base="cap" xOffset="0" yOffset="0.000" />
    <component base="cap" xOffset="0" yOffset="100.000" />
    <contour>
      <point x="0.000" y="0.000" type="line"/>
      <point x="0.000" y="100.000" type="line"/>
      <point x="1.000" y="100.000" type="line"/>
      <point x="1.000" y="0.000" type="line"/>
    </contour>
  </outline>
</glyph>
<glyph name="_28" format="2">
  <advance width="1"/>
  <unicode hex="011C"/>
  <unicode hex="2583"/><unicode hex="006F"/>
  <outline>
    <component base="cap" xOffset="0" yOffset="0.000" />
    <component base="cap" xOffset="0" yOffset="280.000" />
    <contour>
      <point x="0.000" y="0.000" type="line"/>
      <point x="0.000" y="280.000" type="line"/>
      <point x="1.000" y="280.000" type="line"/>
      <point x="1.000" y="0.000" type="line"/>
    </contour>
  </outline>
</glyph>
<glyph name="_39" format="2">
  <advance width="1"/>
  <unicode hex="0127"/>
  
  <outline>
    <component base="cap" xOffset="0" yOffset="0.000" />
    <component base="cap" xOffset="0" yOffset="390.000" />
    <contour>
      <point x="0.000" y="0.000" type="line"/>
      <point x="0.000" y="390.000" type="line"/>
      <point x="1.000" y="390.000" type="line"/>
      <point x="1.000" y="0.000" type="line"/>
    </contour>
  </outline>
</glyph>
<glyph name="_41" format="2">
  <advance width="1"/>
  <unicode hex="0129"/>
  
  <outline>
    <component base="cap" xOffset="0" yOffset="0.000" />
    <component base="cap" xOffset="0" yOffset="410.000" />
    <contour>
      <point x="0.000" y="0.000" type="line"/>
      <point x="0.000" y="410.000" type="line"/>
      <point x="1.000" y="410.000" type="line"/>
      <point x="1.000" y="0.000" type="line"/>
    </contour>
  </outline>
</glyph>
<glyph name="_46" format="2">
  <advance width="1"/>
  <unicode hex="012E"/>
  <unicode hex="0078"/>
  <outline>
    <component base="cap" xOffset="0" yOffset="0.000" />
    <component base="cap" xOffset="0" yOffset="460.000" />
    <contour>
      <point x="0.000" y="0.000" type="line"/>
      <point x="0.000" y="460.000" type="line"/>
      <point x="1.000" y="460.000" type="line"/>
      <point x="1.000" y="0.000" type="line"/>
    </contour>
  </outline>
</glyph>
<glyph name="_59" format="2">
  <advance width="1"/>
  <unicode hex="013B"/>
  
  <outline>
    <component base="cap" xOffset="0" yOffset="0.000" />
    <component base="cap" xOffset="0" yOffset="590.000" />
    <contour>
      <point x="0.000" y="0.000" type="line"/>
      <point x="0.000" y="590.000" type="line"/>
      <point x="1.000" y="590.000" type="line"/>
      <point x="1.000" y="0.000" type="line"/>
    </contour>
  </outline>
</glyph>
<glyph name="_73" format="2">
  <advance width="1"/>
  <unicode hex="0149"/>
  
  <outline>
    <component base="cap" xOffset="0" yOffset="0" />
    <component base="cap" xOffset="0" yOffset="730" />
    <contour>
      <point x="0" y="0" type="line"/>
      <point x="0" y="730" type="line"/>
      <point x="1" y="730" type="line"/>
      <point x="1" y="0" type="line"/>
    </contour>
  </outline>
</glyph>
<glyph name="_91" format="2">
  <advance width="1"/>
  <unicode hex="015B"/>
  
  <outline>
    <component base="cap" xOffset="0" yOffset="0.000" />
    <component base="cap" xOffset="0" yOffset="910.000" />
    <contour>
      <point x="0.000" y="0.000" type="line"/>
      <point x="0.000" y="910.000" type="line"/>
      <point x="1.000" y="910.000" type="line"/>
      <point x="1.000" y="0.000" type="line"/>
    </contour>
  </outline>
</glyph>
<glyph name="_100" format="2">
  <advance width="1"/>
  <unicode hex="0164"/>
  <unicode hex="007C"/><unicode hex="2588"/><unicode hex="005A"/>
  <outline>
    <component base="cap" xOffset="0" yOffset="0.000" />
    <component base="cap" xOffset="0" yOffset="1000.000" />
    <contour>
      <point x="0.000" y="0.000" type="line"/>
      <point x="0.000" y="1000.000" type="line"/>
      <point x="1.000" y="1000.000" type="line"/>
      <point x="1.000" y="0.000" type="line"/>
    </contour>
  </outline>
</glyph>
<glyph name="_102" format="2">
  <advance width="1"/>
  <unicode hex="0166"/>
  
  <outline>
    <component base="cap" xOffset="0" yOffset="0.000" />
    <component base="cap" xOffset="0" yOffset="1020.000" />
    <contour>
      <point x="0.000" y="0.000" type="line"/>
      <point x="0.000" y="1020.000" type="line"/>
      <point x="1.000" y="1020.000" type="line"/>
      <point x="1.000" y="0.000" type="line"/>
    </contour>
  </outline>
</glyph>
<glyph name="_103" format="2">
  <advance width="1"/>
  <unicode hex="0167"/>
  
  <outline>
    <component base="cap" xOffset="0" yOffset="0.000" />
    <component base="cap" xOffset="0" yOffset="1030.000" />
    <contour>
      <point x="0.000" y="0.000" type="line"/>
      <point x="0.000" y="1030.000" type="line"/>
      <point x="1.000" y="1030.000" type="line"/>
      <point x="1.000" y="0.000" type="line"/>
    </contour>
  </outline>
</glyph>
<glyph name="_3.center" format="2">
  <advance width="1"/>
  <unicode hex="0403"/>
  
  <outline>
    <component base="cap" xOffset="0" yOffset="485.000" />
    <component base="cap" xOffset="0" yOffset="515.000" />
    <contour>
      <point x="0.000" y="485.000" type="line"/>
      <point x="0.000" y="515.000" type="line"/>
      <point x="1.000" y="515.000" type="line"/>
      <point x="1.000" y="485.000" type="line"/>
    </contour>
  </outline>
</glyph>
<glyph name="_4.center" format="2">
  <advance width="1"/>
  <unicode hex="0404"/>
  
  <outline>
    <component base="cap" xOffset="0" yOffset="480.000" />
    <component base="cap" xOffset="0" yOffset="520.000" />
    <contour>
      <point x="0.000" y="480.000" type="line"/>
      <point x="0.000" y="520.000" type="line"/>
      <point x="1.000" y="520.000" type="line"/>
      <point x="1.000" y="480.000" type="line"/>
    </contour>
  </outline>
</glyph>
<glyph name="_5.center" format="2">
  <advance width="1"/>
  <unicode hex="0405"/>
  
  <outline>
    <component base="cap" xOffset="0" yOffset="475.000" />
    <component base="cap" xOffset="0" yOffset="525.000" />
    <contour>
      <point x="0.000" y="475.000" type="line"/>
      <point x="0.000" y="525.000" type="line"/>
      <point x="1.000" y="525.000" type="line"/>
      <point x="1.000" y="475.000" type="line"/>
    </contour>
  </outline>
</glyph>
<glyph name="_7.center" format="2">
  <advance width="1"/>
  <unicode hex="0407"/>
  
  <outline>
    <component base="cap" xOffset="0" yOffset="465.000" />
    <component base="cap" xOffset="0" yOffset="535.000" />
    <contour>
      <point x="0.000" y="465.000" type="line"/>
      <point x="0.000" y="535.000" type="line"/>
      <point x="1.000" y="535.000" type="line"/>
      <point x="1.000" y="465.000" type="line"/>
    </contour>
  </outline>
</glyph>
<glyph name="_14.center" format="2">
  <advance width="1"/>
  <unicode hex="040E"/>
  
  <outline>
    <component base="cap" xOffset="0" yOffset="430.000" />
    <component base="cap" xOffset="0" yOffset="570.000" />
    <contour>
      <point x="0.000" y="430.000" type="line"/>
      <point x="0.000" y="570.000" type="line"/>
      <point x="1.000" y="570.000" type="line"/>
      <point x="1.000" y="430.000" type="line"/>
    </contour>
  </outline>
</glyph>
<glyph name="_22.center" format="2">
  <advance width="1"/>
  <unicode hex="0416"/>
  
  <outline>
    <component base="cap" xOffset="0" yOffset="390.000" />
    <component base="cap" xOffset="0" yOffset="610.000" />
    <contour>
      <point x="0.000" y="390.000" type="line"/>
      <point x="0.000" y="610.000" type="line"/>
      <point x="1.000" y="610.000" type="line"/>
      <point x="1.000" y="390.000" type="line"/>
    </contour>
  </outline>
</glyph>
<glyph name="_40.center" format="2">
  <advance width="1"/>
  <unicode hex="0428"/>
  
  <outline>
    <component base="cap" xOffset="0" yOffset="300.000" />
    <component base="cap" xOffset="0" yOffset="700.000" />
    <contour>
      <point x="0.000" y="300.000" type="line"/>
      <point x="0.000" y="700.000" type="line"/>
      <point x="1.000" y="700.000" type="line"/>
      <point x="1.000" y="300.000" type="line"/>
    </contour>
  </outline>
</glyph>
<glyph name="_42.center" format="2">
  <advance width="1"/>
  <unicode hex="042A"/>
  
  <outline>
    <component base="cap" xOffset="0" yOffset="290.000" />
    <component base="cap" xOffset="0" yOffset="710.000" />
    <contour>
      <point x="0.000" y="290.000" type="line"/>
      <point x="0.000" y="710.000" type="line"/>
      <point x="1.000" y="710.000" type="line"/>
      <point x="1.000" y="290.000" type="line"/>
    </contour>
  </outline>
</glyph>
<glyph name="_43.center" format="2">
  <advance width="1"/>
  <unicode hex="042B"/>
  
  <outline>
    <component base="cap" xOffset="0" yOffset="285.000" />
    <component base="cap" xOffset="0" yOffset="715.000" />
    <contour>
      <point x="0.000" y="285.000" type="line"/>
      <point x="0.000" y="715.000" type="line"/>
      <point x="1.000" y="715.000" type="line"/>
      <point x="1.000" y="285.000" type="line"/>
    </contour>
  </outline>
</glyph>
<glyph name="_45.center" format="2">
  <advance width="1"/>
  <unicode hex="042D"/>
  
  <outline>
    <component base="cap" xOffset="0" yOffset="275.000" />
    <component base="cap" xOffset="0" yOffset="725.000" />
    <contour>
      <point x="0.000" y="275.000" type="line"/>
      <point x="0.000" y="725.000" type="line"/>
      <point x="1.000" y="725.000" type="line"/>
      <point x="1.000" y="275.000" type="line"/>
    </contour>
  </outline>
</glyph>
<glyph name="_48.center" format="2">
  <advance width="1"/>
  <unicode hex="0430"/>
  
  <outline>
    <component base="cap" xOffset="0" yOffset="260.000" />
    <component base="cap" xOffset="0" yOffset="740.000" />
    <contour>
      <point x="0.000" y="260.000" type="line"/>
      <point x="0.000" y="740.000" type="line"/>
      <point x="1.000" y="740.000" type="line"/>
      <point x="1.000" y="260.000" type="line"/>
    </contour>
  </outline>
</glyph>
<glyph name="_63.center" format="2">
  <advance width="1"/>
  <unicode hex="043F"/>
  
  <outline>
    <component base="cap" xOffset="0" yOffset="185.000" />
    <component base="cap" xOffset="0" yOffset="815.000" />
    <contour>
      <point x="0.000" y="185.000" type="line"/>
      <point x="0.000" y="815.000" type="line"/>
      <point x="1.000" y="815.000" type="line"/>
      <point x="1.000" y="185.000" type="line"/>
    </contour>
  </outline>
</glyph>
<glyph name="_64.center" format="2">
  <advance width="1"/>
  <unicode hex="0440"/>
  
  <outline>
    <component base="cap" xOffset="0" yOffset="180" />
    <component base="cap" xOffset="0" yOffset="820" />
    <contour>
      <point x="0" y="180" type="line"/>
      <point x="0" y="820" type="line"/>
      <point x="1" y="820" type="line"/>
      <point x="1" y="180" type="line"/>
    </contour>
  </outline>
</glyph>
<glyph name="_70.center" format="2">
  <advance width="1"/>
  <unicode hex="0446"/>
  
  <outline>
    <component base="cap" xOffset="0" yOffset="150" />
    <component base="cap" xOffset="0" yOffset="850" />
    <contour>
      <point x="0" y="150" type="line"/>
      <point x="0" y="850" type="line"/>
      <point x="1" y="850" type="line"/>
      <point x="1" y="150" type="line"/>
    </contour>
  </outline>
</glyph>
<glyph name="_76.center" format="2">
  <advance width="1"/>
  <unicode hex="044C"/>
  
  <outline>
    <component base="cap" xOffset="0" yOffset="120.000" />
    <component base="cap" xOffset="0" yOffset="880.000" />
    <contour>
      <point x="0.000" y="120.000" type="line"/>
      <point x="0.000" y="880.000" type="line"/>
      <point x="1.000" y="880.000" type="line"/>
      <point x="1.000" y="120.000" type="line"/>
    </contour>
  </outline>
</glyph>
<glyph name="_79.center" format="2">
  <advance width="1"/>
  <unicode hex="044F"/>
  
  <outline>
    <component base="cap" xOffset="0" yOffset="105.000" />
    <component base="cap" xOffset="0" yOffset="895.000" />
    <contour>
      <point x="0.000" y="105.000" type="line"/>
      <point x="0.000" y="895.000" type="line"/>
      <point x="1.000" y="895.000" type="line"/>
      <point x="1.000" y="105.000" type="line"/>
    </contour>
  </outline>
</glyph>
<glyph name="_98.center" format="2">
  <advance width="1"/>
  <unicode hex="0462"/>
  
  <outline>
    <component base="cap" xOffset="0" yOffset="10.000" />
    <component base="cap" xOffset="0" yOffset="990.000" />
    <contour>
      <point x="0.000" y="10.000" type="line"/>
      <point x="0.000" y="990.000" type="line"/>
      <point x="1.000" y="990.000" type="line"/>
      <point x="1.000" y="10.000" type="line"/>
    </contour>
  </outline>
</glyph>
